<?xml version="1.0" standalone="no"?>
<!DOCTYPE svg PUBLIC "-//W3C//DTD SVG 20010904//EN"
 "http://www.w3.org/TR/2001/REC-SVG-20010904/DTD/svg10.dtd">
<svg version="1.0" xmlns="http://www.w3.org/2000/svg"
 width="1572.000000pt" height="1572.000000pt" viewBox="0 0 1572.000000 1572.000000"
 preserveAspectRatio="xMidYMid meet">
<metadata>
Created by potrace 1.14, written by Peter Selinger 2001-2017
</metadata>
<g transform="translate(0.000000,1572.000000) scale(0.100000,-0.100000)"
fill="#000000" stroke="none">
<path d="M7400 15710 c-1216 -79 -2335 -407 -3378 -989 -1141 -637 -2140
-1588 -2827 -2692 -551 -884 -913 -1836 -1085 -2851 -72 -427 -99 -728 -107
-1188 -14 -809 82 -1541 302 -2305 321 -1115 871 -2120 1648 -3012 143 -165
555 -577 722 -722 743 -648 1568 -1137 2488 -1475 652 -240 1324 -387 2070
-453 270 -24 984 -24 1254 0 1051 93 1977 351 2883 803 1526 762 2762 1998
3524 3524 460 921 716 1851 808 2935 17 203 17 951 0 1155 -50 586 -134 1060
-282 1580 -456 1600 -1418 3022 -2743 4052 -690 537 -1482 962 -2319 1243
-604 202 -1214 326 -1903 385 -167 15 -879 21 -1055 10z m587 -110 c111 -48
194 -172 196 -289 1 -102 -24 -164 -97 -237 -70 -70 -131 -96 -226 -96 -95 0
-156 26 -226 96 -73 73 -98 135 -97 237 2 145 115 277 263 310 49 11 137 1
187 -21z m-2845 -567 c65 -30 133 -95 165 -162 24 -47 28 -68 27 -136 -1 -102
-30 -170 -101 -236 -198 -185 -524 -59 -541 209 -10 154 68 273 217 334 60 24
167 20 233 -9z m5699 -5 c69 -31 125 -86 159 -153 21 -42 25 -64 25 -140 0
-75 -4 -98 -24 -140 -99 -200 -355 -246 -517 -93 -72 68 -98 130 -98 233 0 93
20 149 79 214 98 109 245 140 376 79z m-2391 -203 c906 -82 1711 -305 2491
-691 466 -231 799 -441 1260 -796 351 -270 867 -786 1137 -1137 357 -463 561
-786 792 -1252 401 -810 617 -1602 702 -2569 16 -190 16 -839 0 -1035 -49
-577 -141 -1061 -299 -1570 -274 -883 -745 -1734 -1352 -2444 -343 -402 -699
-737 -1116 -1051 -852 -642 -1799 -1067 -2835 -1274 -895 -178 -1845 -178
-2740 0 -382 76 -867 219 -1202 353 -1068 427 -2001 1096 -2749 1972 -607 710
-1078 1561 -1352 2444 -158 509 -250 993 -299 1570 -16 196 -16 845 0 1035 85
968 301 1758 703 2571 227 459 437 791 791 1250 270 352 781 863 1135 1135
463 358 793 566 1262 798 634 313 1277 517 1991 630 234 37 464 61 775 80 134
8 750 -4 905 -19z m-5715 -1409 c61 -29 127 -93 157 -155 19 -38 23 -62 23
-141 0 -109 -17 -155 -87 -226 -67 -69 -117 -89 -228 -89 -112 0 -161 19 -229
88 -122 123 -129 312 -17 445 87 102 254 136 381 78z m10532 -6 c198 -97 240
-361 83 -517 -70 -69 -119 -88 -230 -88 -111 0 -161 20 -228 89 -70 71 -87
117 -87 226 0 111 19 161 88 230 103 103 240 125 374 60z m-12162 -2401 c34
-13 73 -38 103 -67 129 -127 136 -318 16 -451 -66 -74 -138 -105 -239 -105
-99 0 -171 31 -235 100 -107 117 -118 273 -28 408 78 118 243 168 383 115z
m13770 -9 c65 -31 121 -90 154 -159 21 -46 26 -70 26 -136 0 -67 -4 -89 -28
-137 -102 -207 -372 -248 -529 -80 -159 170 -92 443 130 527 57 23 186 15 247
-15z m-14322 -2842 c65 -28 150 -121 173 -190 22 -66 21 -151 -2 -220 -24 -74
-118 -168 -192 -192 -67 -23 -156 -23 -222 -1 -69 23 -156 104 -188 175 -34
75 -35 183 -3 255 26 59 100 138 154 166 82 43 190 45 280 7z m14877 1 c61
-27 144 -111 171 -173 17 -38 22 -70 22 -126 0 -101 -30 -167 -106 -237 -66
-60 -134 -86 -219 -86 -93 1 -154 28 -224 97 -69 70 -96 131 -97 224 0 85 26
153 85 218 79 85 159 118 268 107 30 -2 75 -14 100 -24z m-14307 -2852 c63
-29 120 -85 155 -152 23 -43 27 -62 27 -140 0 -106 -23 -163 -90 -231 -67 -67
-124 -89 -230 -89 -76 0 -97 4 -139 25 -181 93 -242 327 -123 481 100 131 256
173 400 106z m13739 5 c26 -11 67 -39 92 -62 163 -151 130 -415 -65 -521 -59
-32 -70 -34 -154 -34 -76 0 -98 4 -140 25 -64 31 -124 91 -155 155 -36 74 -35
198 1 275 59 124 175 194 309 186 37 -2 85 -12 112 -24z m-12147 -2409 c68
-22 165 -118 188 -187 22 -65 22 -168 0 -231 -26 -72 -121 -166 -193 -190
-102 -35 -210 -21 -296 38 -165 114 -186 351 -45 495 90 92 210 118 346 75z
m10531 -4 c65 -25 139 -97 173 -169 36 -78 36 -182 -1 -261 -100 -217 -375
-261 -535 -85 -58 64 -83 129 -83 217 0 90 23 149 81 214 99 107 223 136 365
84z m-8094 -1619 c65 -32 126 -94 157 -160 34 -73 35 -191 3 -262 -62 -138
-216 -220 -359 -190 -80 17 -160 69 -205 134 -123 177 -45 418 159 494 58 22
186 14 245 -16z m5697 1 c226 -117 243 -435 31 -567 -139 -86 -306 -63 -414
56 -58 65 -79 121 -80 215 0 66 4 89 26 135 39 84 112 150 190 176 65 21 192
13 247 -15z m-2862 -561 c61 -27 139 -104 169 -168 33 -69 36 -162 9 -242 -25
-76 -118 -170 -193 -194 -68 -23 -156 -23 -224 0 -75 24 -168 118 -193 194
-25 73 -23 174 3 233 40 91 144 178 233 197 58 11 144 3 196 -20z"/>
<path d="M7500 14494 c-25 -2 -103 -8 -175 -14 -788 -63 -1552 -264 -2257
-593 -49 -22 -88 -43 -88 -46 0 -8 107 -74 143 -89 15 -7 43 -12 62 -12 32 0
37 -5 62 -52 16 -29 28 -69 28 -88 0 -30 3 -35 22 -33 14 2 27 -5 33 -18 8
-13 17 -18 30 -14 12 4 22 -1 29 -12 11 -19 53 0 370 168 62 33 122 59 133 57
23 -3 107 -157 108 -196 0 -18 -13 -29 -67 -55 -64 -31 -69 -37 -204 -217 -75
-102 -148 -195 -160 -208 l-23 -23 68 -132 c345 -669 341 -662 360 -662 8 0
29 -20 47 -45 90 -126 211 -184 411 -197 115 -7 93 16 214 -220 283 -551 337
-650 351 -646 6 2 33 -37 59 -86 39 -74 52 -91 71 -91 13 0 29 -10 39 -25 9
-13 24 -27 33 -30 10 -3 46 -56 80 -118 33 -61 75 -137 92 -167 52 -92 202
-362 276 -495 27 -49 77 -139 111 -199 34 -60 62 -110 62 -111 0 -2 22 -41 49
-88 26 -46 51 -99 55 -118 4 -19 9 -47 13 -63 4 -20 1 -31 -10 -38 -15 -8 -15
-12 0 -43 20 -41 27 -42 83 -13 29 16 45 19 56 13 8 -6 36 -50 62 -98 29 -55
56 -93 72 -100 19 -10 25 -21 25 -47 1 -22 18 -67 47 -120 25 -47 76 -143 113
-214 37 -70 78 -144 91 -164 13 -19 24 -43 24 -54 0 -12 11 -23 30 -29 33 -12
38 -24 14 -33 -27 -10 -34 -7 -44 19 -8 21 -14 24 -34 19 -13 -3 -27 -1 -31 5
-10 17 -25 3 -25 -23 0 -17 -10 -28 -40 -41 -22 -10 -40 -24 -40 -32 0 -7 24
-60 54 -116 29 -56 102 -196 161 -312 59 -115 120 -232 135 -260 15 -27 76
-144 135 -260 59 -115 138 -268 175 -340 37 -71 105 -202 150 -290 205 -396
246 -476 290 -560 57 -107 194 -373 279 -539 74 -144 75 -164 25 -295 -36 -91
-36 -94 -20 -128 15 -31 15 -36 0 -66 -28 -56 -36 -61 -49 -36 -11 20 -15 16
-42 -56 -22 -57 -28 -86 -22 -104 4 -14 35 -111 68 -216 61 -192 165 -530 216
-705 51 -170 65 -193 198 -325 152 -150 136 -117 378 -745 66 -173 143 -371
169 -440 46 -119 94 -253 193 -530 24 -69 53 -156 63 -194 10 -37 24 -71 31
-73 46 -18 797 459 1038 658 11 9 58 47 105 85 291 232 712 653 944 944 38 47
76 94 85 105 159 192 450 633 604 917 473 868 739 1806 798 2811 13 210 6 729
-11 912 -70 758 -224 1383 -505 2050 -118 282 -317 668 -450 875 -12 19 -45
71 -73 115 -28 44 -54 85 -59 90 -4 6 -30 44 -58 85 -46 69 -235 326 -276 374
-9 12 -64 77 -121 146 -214 259 -533 578 -797 797 -167 139 -187 155 -313 249
-62 46 -117 87 -123 92 -10 7 -302 201 -375 248 -185 118 -628 346 -875 449
-677 284 -1277 431 -2050 506 -108 10 -816 20 -905 13z"/>
<path d="M4865 13793 c-178 -88 -499 -276 -680 -396 -369 -246 -688 -509
-1021 -841 -729 -730 -1253 -1564 -1587 -2531 -173 -499 -285 -1031 -339
-1600 -18 -189 -18 -953 0 -1130 81 -805 254 -1476 555 -2147 338 -752 777
-1389 1367 -1979 226 -226 328 -318 560 -505 894 -716 1973 -1190 3115 -1369
328 -51 528 -66 920 -72 586 -8 994 32 1550 152 217 47 247 56 240 73 -3 8
-10 50 -16 91 -30 223 -156 1086 -278 1906 -17 110 -51 337 -76 505 -25 168
-50 334 -56 370 -5 36 -30 193 -53 350 -36 234 -48 295 -70 338 -29 57 -33 59
-62 37 -10 -8 -28 -15 -38 -15 -11 0 -35 -12 -54 -27 -30 -22 -49 -28 -121
-33 -140 -10 -170 -34 -458 -344 -307 -331 -313 -337 -357 -357 -58 -26 -112
-24 -175 7 -87 44 -199 197 -235 325 -25 85 -9 122 74 177 36 23 78 54 94 70
68 63 525 621 552 673 20 39 55 141 51 146 -2 2 -30 8 -63 14 -67 12 -120 37
-151 71 -12 12 -70 121 -130 242 -123 248 -129 277 -84 374 l24 51 -21 48
c-18 42 -25 48 -50 47 -16 -1 -51 -18 -79 -38 -49 -35 -73 -44 -73 -28 0 4 32
36 70 70 48 44 69 69 66 80 -8 26 2 35 119 96 61 32 111 59 113 61 1 1 -3 14
-9 28 l-12 26 -37 -19 -37 -19 -21 44 -21 43 -118 -35 c-463 -136 -982 -167
-1461 -87 -407 67 -840 226 -1203 441 l-66 39 189 324 c104 179 202 349 218
378 l30 52 98 -49 c311 -156 625 -257 952 -307 142 -22 510 -25 645 -6 173 25
502 103 551 130 9 5 -31 101 -143 339 -125 267 -159 333 -176 335 -13 2 -33
24 -54 58 -27 46 -37 54 -58 52 -47 -6 -88 89 -138 329 -37 176 -51 212 -215
549 -81 168 -325 678 -447 937 -37 79 -65 148 -62 155 2 7 -1 24 -8 38 -7 14
-16 39 -19 56 -6 28 -4 33 22 43 l28 12 -123 237 c-67 130 -185 357 -260 504
-91 176 -143 267 -152 265 -21 -3 -58 63 -41 73 9 6 -10 52 -77 181 -188 362
-628 1215 -638 1236 -5 13 -17 23 -26 23 -8 0 -25 20 -36 44 l-21 43 36 18
c34 16 35 18 16 25 -35 14 -37 38 -4 55 l30 16 -25 48 c-21 42 -22 50 -9 55
12 4 13 10 4 26 -6 11 -16 20 -23 20 -7 0 -48 69 -92 154 l-80 154 -50 -25z"/>
<path d="M5528 13517 c-56 -29 -63 -36 -66 -65 -2 -18 1 -39 6 -45 5 -7 26
-43 47 -82 53 -99 60 -106 96 -93 48 17 89 72 89 121 0 46 -66 180 -94 190 -8
3 -43 -8 -78 -26z"/>
<path d="M5218 13137 c-15 -10 -7 -32 89 -217 58 -113 118 -227 133 -255 15
-27 78 -149 140 -270 62 -121 125 -242 140 -270 15 -27 64 -123 110 -212 45
-90 86 -160 91 -157 5 3 2 18 -6 34 -10 20 -11 30 -4 32 7 2 -23 70 -70 160
-77 147 -81 157 -61 163 12 4 20 10 18 14 -7 16 -196 383 -302 586 -79 151
-119 220 -130 219 -10 -1 -34 32 -67 92 -28 52 -53 94 -57 93 -4 0 -15 -5 -24
-12z"/>
<path d="M6285 11788 c-33 -17 -62 -32 -64 -34 -3 -3 49 -108 162 -324 33 -63
105 -203 160 -310 55 -107 103 -199 108 -204 4 -5 23 -2 42 8 19 9 37 16 39
16 1 0 19 -29 38 -65 19 -36 38 -65 41 -65 3 0 13 6 23 13 18 13 17 18 -21 88
-23 41 -44 85 -48 99 -7 25 -132 279 -185 375 -15 28 -42 79 -60 115 -19 36
-39 72 -46 80 -6 8 -35 60 -63 115 -28 55 -54 105 -58 111 -6 9 -26 3 -68 -18z"/>
<path d="M5960 11671 c0 -11 321 -642 370 -726 10 -16 46 -85 80 -152 56 -113
79 -139 95 -113 3 5 -6 33 -21 61 -24 49 -25 53 -9 65 16 12 11 25 -60 166
-43 84 -81 158 -85 163 -4 6 -67 127 -140 270 -73 143 -134 261 -135 263 -2 2
-16 -3 -31 -11 -26 -13 -29 -13 -46 7 -11 13 -17 16 -18 7z"/>
<path d="M6734 11475 c-8 -21 2 -45 19 -45 8 0 20 7 27 15 10 12 10 18 0 30
-7 8 -19 15 -27 15 -7 0 -16 -7 -19 -15z"/>
<path d="M6794 11366 c-9 -24 4 -48 23 -44 12 2 18 12 18 28 0 29 -32 41 -41
16z"/>
<path d="M6844 11255 c-4 -9 -2 -21 4 -27 16 -16 47 -5 47 17 0 26 -42 34 -51
10z"/>
<path d="M6894 10695 c-3 -8 6 -36 20 -61 24 -42 25 -49 11 -64 -8 -9 -15 -24
-15 -33 0 -14 141 -297 177 -356 11 -18 21 -22 41 -18 26 5 30 -1 90 -115 56
-109 61 -123 47 -138 -8 -9 -15 -23 -15 -31 0 -12 140 -293 176 -353 7 -11 23
-18 40 -18 16 0 33 -7 39 -15 16 -22 48 -5 41 22 -4 14 0 28 9 35 18 15 19 47
2 80 -7 14 -46 88 -86 165 -40 77 -77 144 -82 150 -5 5 -23 9 -40 10 -29 0
-34 7 -92 119 -54 105 -59 119 -44 128 31 17 18 56 -72 231 -89 170 -90 172
-123 172 -30 0 -36 5 -61 53 -27 51 -52 66 -63 37z"/>
<path d="M8264 9029 c6 -66 39 -177 76 -256 11 -24 20 -47 20 -52 0 -8 23 -21
36 -21 2 0 4 9 4 20 0 10 8 23 18 29 15 9 13 18 -31 104 -26 51 -66 127 -88
168 l-40 74 5 -66z"/>
<path d="M8071 6483 c-172 -90 -184 -98 -202 -137 -36 -79 -29 -104 90 -343
60 -120 117 -226 128 -235 26 -24 80 -45 135 -53 45 -7 48 -6 79 30 30 34 36
36 72 31 26 -5 36 -3 32 4 -10 17 19 44 75 70 28 13 50 26 50 29 -1 3 -27 23
-60 44 l-59 39 -101 -7 c-98 -7 -101 -7 -163 23 -62 31 -137 96 -124 108 4 4
24 -9 46 -29 40 -36 120 -67 173 -67 47 0 91 25 136 75 54 61 59 82 32 135
-15 29 -18 45 -11 54 7 9 -10 55 -60 162 -39 82 -73 152 -77 156 -4 4 -90 -37
-191 -89z"/>
</g>
</svg>
